<svg width="25" height="24" viewBox="0 0 25 24" fill="none" xmlns="http://www.w3.org/2000/svg">
<g clip-path="url(#clip0_1085_1223)">
<path fill-rule="evenodd" clip-rule="evenodd" d="M24.02 12.2728C24.02 11.4219 23.9436 10.6037 23.8018 9.81824H12.5V14.4601H18.9582C18.68 15.9601 17.8345 17.231 16.5636 18.0819V21.0928H20.4418C22.7109 19.0037 24.02 15.9273 24.02 12.2728Z" fill="#4285F4"/>
<path fill-rule="evenodd" clip-rule="evenodd" d="M12.5 24C15.74 24 18.4564 22.9255 20.4418 21.0928L16.5636 18.0818C15.4891 18.8018 14.1145 19.2273 12.5 19.2273C9.37455 19.2273 6.72909 17.1164 5.78546 14.28H1.77637V17.3891C3.75091 21.3109 7.80909 24 12.5 24Z" fill="#34A853"/>
<path fill-rule="evenodd" clip-rule="evenodd" d="M5.78545 14.2801C5.54545 13.5601 5.40909 12.791 5.40909 12.0001C5.40909 11.2091 5.54545 10.4401 5.78545 9.72005V6.61096H1.77636C0.963636 8.23096 0.5 10.0637 0.5 12.0001C0.5 13.9364 0.963636 15.7691 1.77636 17.3891L5.78545 14.2801Z" fill="#FBBC05"/>
<path fill-rule="evenodd" clip-rule="evenodd" d="M12.5 4.77273C14.2618 4.77273 15.8436 5.37818 17.0873 6.56727L20.5291 3.12545C18.4509 1.18909 15.7345 0 12.5 0C7.80909 0 3.75091 2.68909 1.77637 6.61091L5.78546 9.72C6.72909 6.88364 9.37455 4.77273 12.5 4.77273Z" fill="#EA4335"/>
</g>
<defs>
<clipPath id="clip0_1085_1223">
<rect width="24" height="24" fill="white" transform="translate(0.5)"/>
</clipPath>
</defs>
</svg>
