<svg width="24" height="24" viewBox="0 0 24 24" fill="none" xmlns="http://www.w3.org/2000/svg">
<mask id="mask0_998_2831" style="mask-type:alpha" maskUnits="userSpaceOnUse" x="0" y="0" width="24" height="24">
<rect width="24" height="24" fill="#D9D9D9"/>
</mask>
<g mask="url(#mask0_998_2831)">
<path d="M12 16.75C12.2167 16.75 12.396 16.6793 12.538 16.538C12.6793 16.396 12.75 16.2167 12.75 16V11.725C12.75 11.525 12.6793 11.354 12.538 11.212C12.396 11.0707 12.2167 11 12 11C11.7833 11 11.6043 11.0707 11.463 11.212C11.321 11.354 11.25 11.5333 11.25 11.75V16.025C11.25 16.225 11.321 16.396 11.463 16.538C11.6043 16.6793 11.7833 16.75 12 16.75ZM12 9.3C12.2333 9.3 12.425 9.22067 12.575 9.062C12.725 8.904 12.8 8.70833 12.8 8.475C12.8 8.25833 12.725 8.07067 12.575 7.912C12.425 7.754 12.2333 7.675 12 7.675C11.7667 7.675 11.575 7.754 11.425 7.912C11.275 8.07067 11.2 8.25833 11.2 8.475C11.2 8.70833 11.275 8.904 11.425 9.062C11.575 9.22067 11.7667 9.3 12 9.3ZM12 21.5C10.6833 21.5 9.446 21.25 8.288 20.75C7.12933 20.25 6.125 19.575 5.275 18.725C4.425 17.875 3.75 16.8707 3.25 15.712C2.75 14.554 2.5 13.3167 2.5 12C2.5 10.6833 2.75 9.44567 3.25 8.287C3.75 7.129 4.425 6.125 5.275 5.275C6.125 4.425 7.12933 3.75 8.288 3.25C9.446 2.75 10.6833 2.5 12 2.5C13.3167 2.5 14.5543 2.75 15.713 3.25C16.871 3.75 17.875 4.425 18.725 5.275C19.575 6.125 20.25 7.129 20.75 8.287C21.25 9.44567 21.5 10.6833 21.5 12C21.5 13.3167 21.25 14.554 20.75 15.712C20.25 16.8707 19.575 17.875 18.725 18.725C17.875 19.575 16.871 20.25 15.713 20.75C14.5543 21.25 13.3167 21.5 12 21.5ZM12 20C14.2167 20 16.1043 19.221 17.663 17.663C19.221 16.1043 20 14.2167 20 12C20 9.78333 19.221 7.89567 17.663 6.337C16.1043 4.779 14.2167 4 12 4C9.78333 4 7.896 4.779 6.338 6.337C4.77933 7.89567 4 9.78333 4 12C4 14.2167 4.77933 16.1043 6.338 17.663C7.896 19.221 9.78333 20 12 20Z" fill="#1C1B1F"/>
</g>
</svg>
